# xmcd
#
# Track frame offsets: 
#        150
#        43647
#        71210
#        92537
#        121494
#        143266
#        162011
#
# Disc length: 2493 seconds
#
# Revision: 0
# Processed by: cddbd v1.5.2PL0 Copyright (c) Steve Scherf et al.
# Submitted via: ExactAudioCopy v0.99pb4
#
DISCID=5409bb07
DTITLE=Isaac Hayes - Juicy Fruit
DYEAR=1976
DGENRE=Soul
TTITLE0=Juicy Fruit (Disco Freak)
TTITLE1=Let's Don't Ever Blow Our Thing
TTITLE2=The Storm is Over
TTITLE3=Music to Make Love By
TTITLE4=Thank You Love
TTITLE5=Lady of the Night
TTITLE6=Love Me or Lose Me
EXTD=
EXTT0=
EXTT1=
EXTT2=
EXTT3=
EXTT4=
EXTT5=
EXTT6=
PLAYORDER=
